<?xml version="1.0" encoding="UTF-8" standalone="no"?>
<!DOCTYPE svg PUBLIC "-//W3C//DTD SVG 1.1//EN" "http://www.w3.org/Graphics/SVG/1.1/DTD/svg11.dtd">
<!-- Generated by Microsoft Visio, SVG Export subnetting-requirements.svg Page-1 -->
<svg xmlns="http://www.w3.org/2000/svg" xmlns:xlink="http://www.w3.org/1999/xlink" xmlns:ev="http://www.w3.org/2001/xml-events"
		xmlns:v="http://schemas.microsoft.com/visio/2003/SVGExtensions/" width="7.22897in" height="3.21344in"
		viewBox="0 0 520.486 231.368" xml:space="preserve" color-interpolation-filters="sRGB" class="st23">
	<v:documentProperties v:langID="1033" v:viewMarkup="false"/>

	<style type="text/css">
	<![CDATA[
		.st1 {stroke:#126d99;stroke-linecap:round;stroke-linejoin:round;stroke-width:1.5}
		.st2 {fill:#0e6f9c;stroke:none;stroke-linecap:round;stroke-linejoin:round;stroke-width:0.75}
		.st3 {stroke:#aae6ff;stroke-linecap:round;stroke-linejoin:round;stroke-width:0.594974}
		.st4 {fill:#1082b8;stroke:none;stroke-linecap:round;stroke-linejoin:round;stroke-width:0.75}
		.st5 {stroke:#ffffff;stroke-linecap:round;stroke-linejoin:round;stroke-width:1}
		.st6 {fill:#ffffff;stroke:none;stroke-linecap:round;stroke-linejoin:round;stroke-width:0.75}
		.st7 {fill:#000000;stroke:none;stroke-linecap:round;stroke-linejoin:round;stroke-width:0.75}
		.st8 {fill:#126d99;stroke:#ffffff;stroke-linecap:round;stroke-linejoin:round;stroke-width:0.75}
		.st9 {stroke:#ffffff;stroke-linecap:round;stroke-linejoin:round;stroke-width:1.84623}
		.st10 {fill:#1684b8;stroke:#a5a5a5;stroke-linecap:round;stroke-linejoin:round;stroke-width:0.75}
		.st11 {fill:#ffffff;stroke:#4bacc6;stroke-linecap:round;stroke-linejoin:round;stroke-width:0.75}
		.st12 {fill:#ffffff;stroke:#ffffff;stroke-linecap:round;stroke-linejoin:round;stroke-width:0.75}
		.st13 {fill:#000000;stroke:#ffffff;stroke-linecap:round;stroke-linejoin:round;stroke-width:0.75}
		.st14 {fill:#fee599;stroke:#126d99;stroke-linecap:round;stroke-linejoin:round;stroke-width:1}
		.st15 {fill:#000000;font-family:Verdana;font-size:1.16666em}
		.st16 {font-size:1em;font-weight:bold}
		.st17 {fill:none;stroke:none;stroke-linecap:round;stroke-linejoin:round;stroke-width:0.75}
		.st18 {fill:#ffffff;font-family:Verdana;font-size:0.75em;font-weight:bold}
		.st19 {fill:#000000;font-family:Verdana;font-size:1.16666em;font-weight:bold}
		.st20 {font-size:1em}
		.st21 {fill:#126d99;stroke:#126d99;stroke-linecap:round;stroke-linejoin:round;stroke-width:1}
		.st22 {fill:#ffffff;font-family:Verdana;font-size:1.16666em;font-weight:bold}
		.st23 {fill:none;fill-rule:evenodd;font-size:12px;overflow:visible;stroke-linecap:square;stroke-miterlimit:3}
	]]>
	</style>

	<g v:mID="0" v:index="1" v:groupContext="foregroundPage">
		<title>Page-1</title>
		<v:pageProperties v:drawingScale="0.0393701" v:pageScale="0.0393701" v:drawingUnits="24" v:shadowOffsetX="9"
				v:shadowOffsetY="-9"/>
		<v:layer v:name="Connector" v:index="0"/>
		<g id="group163-1" transform="translate(0.5,-0.5)" v:mID="163" v:groupContext="group">
			<title>Sheet.163</title>
			<g id="shape113-2" v:mID="113" v:groupContext="shape" v:layerMember="0" transform="translate(294.857,-105.058)">
				<title>Dynamic connector</title>
				<path d="M0 224.28 L28.67 224.28" class="st1"/>
			</g>
			<g id="shape114-5" v:mID="114" v:groupContext="shape" v:layerMember="0" transform="translate(264.628,-135.107)">
				<title>Dynamic connector.114</title>
				<path d="M0 231.37 L0 177.51 A5.66929 5.66929 0 0 1 5.67 171.84 L58.9 171.84" class="st1"/>
			</g>
			<g id="shape115-8" v:mID="115" v:groupContext="shape" v:layerMember="0" transform="translate(264.628,-95.2747)">
				<title>Dynamic connector.115</title>
				<path d="M0 231.37 L0 291.02 A5.66929 5.66929 -180 0 0 5.67 296.69 L58.9 296.69" class="st1"/>
			</g>
			<g id="shape116-11" v:mID="116" v:groupContext="shape" v:layerMember="0" transform="translate(234.401,-105.058)">
				<title>Dynamic connector.116</title>
				<path d="M0 224.28 L-41.1 224.28" class="st1"/>
			</g>
			<g id="group1-14" transform="translate(230.232,-94.8582)" v:mID="1" v:groupContext="group">
				<title>router-svg</title>
				<g id="shape2-15" v:mID="2" v:groupContext="shape" transform="translate(0.519187,-0.416412)">
					<title>Sheet.2</title>
					<path d="M67.75 219.75 C67.75 219.75 67.75 219.75 67.75 219.75 C67.75 226.18 52.55 231.37 33.93 231.37 C15.21
								 231.37 -0 226.18 0 219.75 C-0 213.32 15.21 208.13 33.93 208.13 C52.55 208.13 67.75 213.32 67.75
								 219.75 Z" class="st2"/>
				</g>
				<g id="shape3-17" v:mID="3" v:groupContext="shape" transform="translate(0.519187,-0.416412)">
					<title>Sheet.3</title>
					<path d="M67.75 219.75 C67.75 219.75 67.75 219.75 67.75 219.75 C67.75 226.18 52.55 231.37 33.93 231.37 C15.21
								 231.37 -0 226.18 0 219.75 C-0 213.32 15.21 208.13 33.93 208.13 C52.55 208.13 67.75 213.32 67.75
								 219.75" class="st3"/>
				</g>
				<g id="shape4-20" v:mID="4" v:groupContext="shape" transform="translate(0.415748,-11.723)">
					<title>Sheet.4</title>
					<path d="M0 214.77 L0 231.37 L67.86 231.37 L67.86 214.77 L0 214.77 L0 214.77 L0 214.77 Z" class="st2"/>
				</g>
				<g id="shape5-22" v:mID="5" v:groupContext="shape" transform="translate(0.519187,-17.0132)">
					<title>Sheet.5</title>
					<path d="M67.75 219.75 C67.75 219.75 67.75 219.75 67.75 219.75 C67.75 226.18 52.55 231.37 33.93 231.37 C15.21
								 231.37 -0 226.18 0 219.75 C-0 213.32 15.21 208.13 33.93 208.13 C52.55 208.13 67.75 213.32 67.75
								 219.75 Z" class="st4"/>
				</g>
				<g id="shape6-24" v:mID="6" v:groupContext="shape" transform="translate(0.519187,-17.0132)">
					<title>Sheet.6</title>
					<path d="M67.75 219.75 C67.75 219.75 67.75 219.75 67.75 219.75 C67.75 226.18 52.55 231.37 33.93 231.37 C15.21
								 231.37 -0 226.18 0 219.75 C-0 213.32 15.21 208.13 33.93 208.13 C52.55 208.13 67.75 213.32 67.75
								 219.75" class="st5"/>
				</g>
				<g id="shape7-27" v:mID="7" v:groupContext="shape" transform="translate(35.2748,-29.5646)">
					<title>Sheet.7</title>
					<path d="M0 229.71 L4.97 231.37 L16.76 226.7 L22.24 228.05 L19.34 223.8 L5.17 223.8 L11.07 225.25 L0 229.71 L0
								 229.71 L0 229.71 Z" class="st4"/>
				</g>
				<g id="shape8-29" v:mID="8" v:groupContext="shape" transform="translate(10.8631,-20.5401)">
					<title>Sheet.8</title>
					<path d="M22.34 225.45 L17.38 223.8 L5.59 228.57 L0 227.22 L3 231.37 L17.17 231.37 L11.17 229.92 L22.34 225.45
								 L22.34 225.45 L22.34 225.45 Z" class="st4"/>
				</g>
				<g id="shape9-31" v:mID="9" v:groupContext="shape" transform="translate(12.1044,-29.7721)">
					<title>Sheet.9</title>
					<path d="M0 225.45 L4.97 223.8 L16.76 228.57 L22.34 227.22 L19.45 231.37 L5.17 231.37 L11.17 229.92 L0 225.45
								 L0 225.45 L0 225.45 Z" class="st4"/>
				</g>
				<g id="shape10-33" v:mID="10" v:groupContext="shape" transform="translate(34.5508,-20.0214)">
					<title>Sheet.10</title>
					<path d="M22.24 229.71 L17.27 231.37 L5.48 226.7 L0 228.05 L2.9 223.8 L17.07 223.8 L11.17 225.25 L22.24 229.71
								 L22.24 229.71 L22.24 229.71 Z" class="st4"/>
				</g>
				<g id="shape11-35" v:mID="11" v:groupContext="shape" transform="translate(35.6886,-29.1497)">
					<title>Sheet.11</title>
					<path d="M0 229.71 L4.97 231.37 L16.76 226.7 L22.24 228.05 L19.34 223.8 L5.17 223.8 L11.07 225.25 L0 229.71 L0
								 229.71 L0 229.71 Z" class="st6"/>
				</g>
				<g id="shape12-37" v:mID="12" v:groupContext="shape" transform="translate(11.2769,-20.1252)">
					<title>Sheet.12</title>
					<path d="M22.34 225.45 L17.38 223.8 L5.59 228.57 L0 227.22 L3 231.37 L17.17 231.37 L11.17 229.92 L22.34 225.45
								 L22.34 225.45 L22.34 225.45 Z" class="st6"/>
				</g>
				<g id="shape13-39" v:mID="13" v:groupContext="shape" transform="translate(12.5182,-29.3571)">
					<title>Sheet.13</title>
					<path d="M0 225.45 L4.97 223.8 L16.76 228.57 L22.34 227.22 L19.45 231.37 L5.17 231.37 L11.17 229.92 L0 225.45
								 L0 225.45 L0 225.45 Z" class="st6"/>
				</g>
				<g id="shape14-41" v:mID="14" v:groupContext="shape" transform="translate(34.9645,-19.6065)">
					<title>Sheet.14</title>
					<path d="M22.24 229.71 L17.27 231.37 L5.48 226.7 L0 228.05 L2.9 223.8 L17.07 223.8 L11.17 225.25 L22.24 229.71
								 L22.24 229.71 L22.24 229.71 Z" class="st6"/>
				</g>
				<g id="shape15-43" v:mID="15" v:groupContext="shape" transform="translate(0.519187,-11.723)">
					<title>Sheet.15</title>
					<path d="M0 214.67 L0 231.37" class="st3"/>
				</g>
				<g id="shape16-46" v:mID="16" v:groupContext="shape" transform="translate(68.272,-11.723)">
					<title>Sheet.16</title>
					<path d="M0 214.67 L0 231.37" class="st3"/>
				</g>
				<g id="shape17-49" v:mID="17" v:groupContext="shape">
					<title>Sheet.17</title>
					<path d="M33.41 226.08 L33.41 226.08 L33.41 226.08 Z" class="st6"/>
				</g>
				<g id="shape18-51" v:mID="18" v:groupContext="shape">
					<title>Sheet.18</title>
				</g>
				<g id="shape19-52" v:mID="19" v:groupContext="shape">
					<title>Sheet.19</title>
					<path d="M33.41 225.56 L33.41 225.56 L33.41 225.56 Z" class="st7"/>
				</g>
				<g id="shape20-54" v:mID="20" v:groupContext="shape">
					<title>Sheet.20</title>
				</g>
				<g id="shape21-55" v:mID="21" v:groupContext="shape">
					<title>Sheet.21</title>
					<path d="M34.34 221.62 L34.34 221.62 L34.34 221.62 Z" class="st7"/>
				</g>
				<g id="shape22-57" v:mID="22" v:groupContext="shape">
					<title>Sheet.22</title>
				</g>
			</g>
			<g id="group23-58" transform="translate(322.946,-105.179)" v:mID="23" v:groupContext="group">
				<title>switch-svg</title>
				<g id="shape24-59" v:mID="24" v:groupContext="shape" transform="translate(0.578182,-0.600066)">
					<title>Sheet.24</title>
					<path d="M0 218.34 L0 231.37 L51.92 231.37 L51.92 218.34 L0 218.34 L0 218.34 L0 218.34 Z" class="st8"/>
				</g>
				<g id="shape25-61" v:mID="25" v:groupContext="shape" transform="translate(0.578182,-0.600066)">
					<title>Sheet.25</title>
					<path d="M0 218.34 L0 231.37 L51.92 231.37 L51.92 218.34 L0 218.34 L0 218.34 L0 218.34" class="st9"/>
				</g>
				<g id="shape26-64" v:mID="26" v:groupContext="shape" transform="translate(52.4964,-0.600066)">
					<title>Sheet.26</title>
					<path d="M0 218.34 L15.78 202.47 L15.78 215.5 L0 231.37 L0 218.34 L0 218.34 L0 218.34 Z" class="st8"/>
				</g>
				<g id="shape27-66" v:mID="27" v:groupContext="shape" transform="translate(52.4964,-0.600066)">
					<title>Sheet.27</title>
					<path d="M0 218.34 L15.78 202.47 L15.78 215.5 L0 231.37 L0 218.34 L0 218.34 L0 218.34" class="st9"/>
				</g>
				<g id="shape28-69" v:mID="28" v:groupContext="shape" transform="translate(0.578182,-13.6287)">
					<title>Sheet.28</title>
					<path d="M51.92 231.37 L67.69 215.5 L15.78 215.5 L0 231.37 L51.92 231.37 L51.92 231.37 L51.92 231.37 Z"
							class="st10"/>
				</g>
				<g id="shape29-71" v:mID="29" v:groupContext="shape" transform="translate(0.578182,-13.6287)">
					<title>Sheet.29</title>
					<path d="M51.92 231.37 L67.69 215.5 L15.78 215.5 L0 231.37 L51.92 231.37 L51.92 231.37 L51.92 231.37"
							class="st9"/>
				</g>
				<g id="shape30-74" v:mID="30" v:groupContext="shape" transform="translate(31.3053,-16.8267)">
					<title>Sheet.30</title>
					<path d="M1.88 227.22 L0 229.12 L13.54 229.12 L11.18 231.37 L22.13 228.29 L16.36 226.04 L15.19 227.22 L1.88 227.22
								 L1.88 227.22 L1.88 227.22 Z" class="st11"/>
				</g>
				<g id="shape31-76" v:mID="31" v:groupContext="shape" transform="translate(37.7804,-23.341)">
					<title>Sheet.31</title>
					<path d="M1.88 227.22 L0 229.12 L13.54 229.12 L11.18 231.37 L22.13 228.29 L16.36 226.04 L15.19 227.22 L1.88 227.22
								 L1.88 227.22 L1.88 227.22 Z" class="st11"/>
				</g>
				<g id="shape32-78" v:mID="32" v:groupContext="shape" transform="translate(8.1128,-14.9316)">
					<title>Sheet.32</title>
					<path d="M20.25 230.18 L22.13 228.29 L8.71 228.29 L10.95 226.04 L0 229.12 L5.77 231.37 L7.06 230.18 L20.25 230.18
								 L20.25 230.18 L20.25 230.18 Z" class="st11"/>
				</g>
				<g id="shape33-80" v:mID="33" v:groupContext="shape" transform="translate(14.5879,-21.446)">
					<title>Sheet.33</title>
					<path d="M20.25 230.18 L22.13 228.29 L8.71 228.29 L10.95 226.04 L0 229.12 L5.77 231.37 L7.06 230.18 L20.25 230.18
								 L20.25 230.18 L20.25 230.18 Z" class="st11"/>
				</g>
				<g id="shape34-82" v:mID="34" v:groupContext="shape">
					<title>Sheet.34</title>
					<path d="M24.36 227.1 L24.36 227.1 L24.36 227.1 Z" class="st12"/>
				</g>
				<g id="shape35-84" v:mID="35" v:groupContext="shape">
					<title>Sheet.35</title>
				</g>
				<g id="shape36-85" v:mID="36" v:groupContext="shape">
					<title>Sheet.36</title>
					<path d="M24.36 226.74 L24.36 226.74 L24.36 226.74 Z" class="st13"/>
				</g>
				<g id="shape37-87" v:mID="37" v:groupContext="shape">
					<title>Sheet.37</title>
				</g>
				<g id="shape38-88" v:mID="38" v:groupContext="shape">
					<title>Sheet.38</title>
					<path d="M25.07 223.54 L25.07 223.54 L25.07 223.54 Z" class="st13"/>
				</g>
				<g id="shape39-90" v:mID="39" v:groupContext="shape">
					<title>Sheet.39</title>
				</g>
			</g>
			<g id="group62-91" transform="translate(322.946,-187.519)" v:mID="62" v:groupContext="group">
				<title>switch-svg.62</title>
				<g id="shape63-92" v:mID="63" v:groupContext="shape" transform="translate(0.578182,-0.600066)">
					<title>Sheet.63</title>
					<path d="M0 218.34 L0 231.37 L51.92 231.37 L51.92 218.34 L0 218.34 L0 218.34 L0 218.34 Z" class="st8"/>
				</g>
				<g id="shape64-94" v:mID="64" v:groupContext="shape" transform="translate(0.578182,-0.600066)">
					<title>Sheet.64</title>
					<path d="M0 218.34 L0 231.37 L51.92 231.37 L51.92 218.34 L0 218.34 L0 218.34 L0 218.34" class="st9"/>
				</g>
				<g id="shape65-97" v:mID="65" v:groupContext="shape" transform="translate(52.4964,-0.600066)">
					<title>Sheet.65</title>
					<path d="M0 218.34 L15.78 202.47 L15.78 215.5 L0 231.37 L0 218.34 L0 218.34 L0 218.34 Z" class="st8"/>
				</g>
				<g id="shape66-99" v:mID="66" v:groupContext="shape" transform="translate(52.4964,-0.600066)">
					<title>Sheet.66</title>
					<path d="M0 218.34 L15.78 202.47 L15.78 215.5 L0 231.37 L0 218.34 L0 218.34 L0 218.34" class="st9"/>
				</g>
				<g id="shape67-102" v:mID="67" v:groupContext="shape" transform="translate(0.578182,-13.6287)">
					<title>Sheet.67</title>
					<path d="M51.92 231.37 L67.69 215.5 L15.78 215.5 L0 231.37 L51.92 231.37 L51.92 231.37 L51.92 231.37 Z"
							class="st10"/>
				</g>
				<g id="shape68-104" v:mID="68" v:groupContext="shape" transform="translate(0.578182,-13.6287)">
					<title>Sheet.68</title>
					<path d="M51.92 231.37 L67.69 215.5 L15.78 215.5 L0 231.37 L51.92 231.37 L51.92 231.37 L51.92 231.37"
							class="st9"/>
				</g>
				<g id="shape69-107" v:mID="69" v:groupContext="shape" transform="translate(31.3053,-16.8267)">
					<title>Sheet.69</title>
					<path d="M1.88 227.22 L0 229.12 L13.54 229.12 L11.18 231.37 L22.13 228.29 L16.36 226.04 L15.19 227.22 L1.88 227.22
								 L1.88 227.22 L1.88 227.22 Z" class="st11"/>
				</g>
				<g id="shape70-109" v:mID="70" v:groupContext="shape" transform="translate(37.7804,-23.341)">
					<title>Sheet.70</title>
					<path d="M1.88 227.22 L0 229.12 L13.54 229.12 L11.18 231.37 L22.13 228.29 L16.36 226.04 L15.19 227.22 L1.88 227.22
								 L1.88 227.22 L1.88 227.22 Z" class="st11"/>
				</g>
				<g id="shape71-111" v:mID="71" v:groupContext="shape" transform="translate(8.1128,-14.9316)">
					<title>Sheet.71</title>
					<path d="M20.25 230.18 L22.13 228.29 L8.71 228.29 L10.95 226.04 L0 229.12 L5.77 231.37 L7.06 230.18 L20.25 230.18
								 L20.25 230.18 L20.25 230.18 Z" class="st11"/>
				</g>
				<g id="shape72-113" v:mID="72" v:groupContext="shape" transform="translate(14.5879,-21.446)">
					<title>Sheet.72</title>
					<path d="M20.25 230.18 L22.13 228.29 L8.71 228.29 L10.95 226.04 L0 229.12 L5.77 231.37 L7.06 230.18 L20.25 230.18
								 L20.25 230.18 L20.25 230.18 Z" class="st11"/>
				</g>
				<g id="shape73-115" v:mID="73" v:groupContext="shape">
					<title>Sheet.73</title>
					<path d="M24.36 227.1 L24.36 227.1 L24.36 227.1 Z" class="st12"/>
				</g>
				<g id="shape74-117" v:mID="74" v:groupContext="shape">
					<title>Sheet.74</title>
				</g>
				<g id="shape75-118" v:mID="75" v:groupContext="shape">
					<title>Sheet.75</title>
					<path d="M24.36 226.74 L24.36 226.74 L24.36 226.74 Z" class="st13"/>
				</g>
				<g id="shape76-120" v:mID="76" v:groupContext="shape">
					<title>Sheet.76</title>
				</g>
				<g id="shape77-121" v:mID="77" v:groupContext="shape">
					<title>Sheet.77</title>
					<path d="M25.07 223.54 L25.07 223.54 L25.07 223.54 Z" class="st13"/>
				</g>
				<g id="shape78-123" v:mID="78" v:groupContext="shape">
					<title>Sheet.78</title>
				</g>
			</g>
			<g id="group79-124" transform="translate(322.946,-22.8385)" v:mID="79" v:groupContext="group">
				<title>switch-svg.79</title>
				<g id="shape80-125" v:mID="80" v:groupContext="shape" transform="translate(0.578182,-0.600066)">
					<title>Sheet.80</title>
					<path d="M0 218.34 L0 231.37 L51.92 231.37 L51.92 218.34 L0 218.34 L0 218.34 L0 218.34 Z" class="st8"/>
				</g>
				<g id="shape81-127" v:mID="81" v:groupContext="shape" transform="translate(0.578182,-0.600066)">
					<title>Sheet.81</title>
					<path d="M0 218.34 L0 231.37 L51.92 231.37 L51.92 218.34 L0 218.34 L0 218.34 L0 218.34" class="st9"/>
				</g>
				<g id="shape82-130" v:mID="82" v:groupContext="shape" transform="translate(52.4964,-0.600066)">
					<title>Sheet.82</title>
					<path d="M0 218.34 L15.78 202.47 L15.78 215.5 L0 231.37 L0 218.34 L0 218.34 L0 218.34 Z" class="st8"/>
				</g>
				<g id="shape83-132" v:mID="83" v:groupContext="shape" transform="translate(52.4964,-0.600066)">
					<title>Sheet.83</title>
					<path d="M0 218.34 L15.78 202.47 L15.78 215.5 L0 231.37 L0 218.34 L0 218.34 L0 218.34" class="st9"/>
				</g>
				<g id="shape84-135" v:mID="84" v:groupContext="shape" transform="translate(0.578182,-13.6287)">
					<title>Sheet.84</title>
					<path d="M51.92 231.37 L67.69 215.5 L15.78 215.5 L0 231.37 L51.92 231.37 L51.92 231.37 L51.92 231.37 Z"
							class="st10"/>
				</g>
				<g id="shape85-137" v:mID="85" v:groupContext="shape" transform="translate(0.578182,-13.6287)">
					<title>Sheet.85</title>
					<path d="M51.92 231.37 L67.69 215.5 L15.78 215.5 L0 231.37 L51.92 231.37 L51.92 231.37 L51.92 231.37"
							class="st9"/>
				</g>
				<g id="shape86-140" v:mID="86" v:groupContext="shape" transform="translate(31.3053,-16.8267)">
					<title>Sheet.86</title>
					<path d="M1.88 227.22 L0 229.12 L13.54 229.12 L11.18 231.37 L22.13 228.29 L16.36 226.04 L15.19 227.22 L1.88 227.22
								 L1.88 227.22 L1.88 227.22 Z" class="st11"/>
				</g>
				<g id="shape87-142" v:mID="87" v:groupContext="shape" transform="translate(37.7804,-23.341)">
					<title>Sheet.87</title>
					<path d="M1.88 227.22 L0 229.12 L13.54 229.12 L11.18 231.37 L22.13 228.29 L16.36 226.04 L15.19 227.22 L1.88 227.22
								 L1.88 227.22 L1.88 227.22 Z" class="st11"/>
				</g>
				<g id="shape88-144" v:mID="88" v:groupContext="shape" transform="translate(8.1128,-14.9316)">
					<title>Sheet.88</title>
					<path d="M20.25 230.18 L22.13 228.29 L8.71 228.29 L10.95 226.04 L0 229.12 L5.77 231.37 L7.06 230.18 L20.25 230.18
								 L20.25 230.18 L20.25 230.18 Z" class="st11"/>
				</g>
				<g id="shape89-146" v:mID="89" v:groupContext="shape" transform="translate(14.5879,-21.446)">
					<title>Sheet.89</title>
					<path d="M20.25 230.18 L22.13 228.29 L8.71 228.29 L10.95 226.04 L0 229.12 L5.77 231.37 L7.06 230.18 L20.25 230.18
								 L20.25 230.18 L20.25 230.18 Z" class="st11"/>
				</g>
				<g id="shape90-148" v:mID="90" v:groupContext="shape">
					<title>Sheet.90</title>
					<path d="M24.36 227.1 L24.36 227.1 L24.36 227.1 Z" class="st12"/>
				</g>
				<g id="shape91-150" v:mID="91" v:groupContext="shape">
					<title>Sheet.91</title>
				</g>
				<g id="shape92-151" v:mID="92" v:groupContext="shape">
					<title>Sheet.92</title>
					<path d="M24.36 226.74 L24.36 226.74 L24.36 226.74 Z" class="st13"/>
				</g>
				<g id="shape93-153" v:mID="93" v:groupContext="shape">
					<title>Sheet.93</title>
				</g>
				<g id="shape94-154" v:mID="94" v:groupContext="shape">
					<title>Sheet.94</title>
					<path d="M25.07 223.54 L25.07 223.54 L25.07 223.54 Z" class="st13"/>
				</g>
				<g id="shape95-156" v:mID="95" v:groupContext="shape">
					<title>Sheet.95</title>
				</g>
			</g>
			<g id="group96-157" transform="translate(134.48,-105.179)" v:mID="96" v:groupContext="group">
				<title>switch-svg.96</title>
				<g id="shape97-158" v:mID="97" v:groupContext="shape" transform="translate(0.578182,-0.600066)">
					<title>Sheet.97</title>
					<path d="M0 218.34 L0 231.37 L51.92 231.37 L51.92 218.34 L0 218.34 L0 218.34 L0 218.34 Z" class="st8"/>
				</g>
				<g id="shape98-160" v:mID="98" v:groupContext="shape" transform="translate(0.578182,-0.600066)">
					<title>Sheet.98</title>
					<path d="M0 218.34 L0 231.37 L51.92 231.37 L51.92 218.34 L0 218.34 L0 218.34 L0 218.34" class="st9"/>
				</g>
				<g id="shape99-163" v:mID="99" v:groupContext="shape" transform="translate(52.4964,-0.600066)">
					<title>Sheet.99</title>
					<path d="M0 218.34 L15.78 202.47 L15.78 215.5 L0 231.37 L0 218.34 L0 218.34 L0 218.34 Z" class="st8"/>
				</g>
				<g id="shape100-165" v:mID="100" v:groupContext="shape" transform="translate(52.4964,-0.600066)">
					<title>Sheet.100</title>
					<path d="M0 218.34 L15.78 202.47 L15.78 215.5 L0 231.37 L0 218.34 L0 218.34 L0 218.34" class="st9"/>
				</g>
				<g id="shape101-168" v:mID="101" v:groupContext="shape" transform="translate(0.578182,-13.6287)">
					<title>Sheet.101</title>
					<path d="M51.92 231.37 L67.69 215.5 L15.78 215.5 L0 231.37 L51.92 231.37 L51.92 231.37 L51.92 231.37 Z"
							class="st10"/>
				</g>
				<g id="shape102-170" v:mID="102" v:groupContext="shape" transform="translate(0.578182,-13.6287)">
					<title>Sheet.102</title>
					<path d="M51.92 231.37 L67.69 215.5 L15.78 215.5 L0 231.37 L51.92 231.37 L51.92 231.37 L51.92 231.37"
							class="st9"/>
				</g>
				<g id="shape103-173" v:mID="103" v:groupContext="shape" transform="translate(31.3053,-16.8267)">
					<title>Sheet.103</title>
					<path d="M1.88 227.22 L0 229.12 L13.54 229.12 L11.18 231.37 L22.13 228.29 L16.36 226.04 L15.19 227.22 L1.88 227.22
								 L1.88 227.22 L1.88 227.22 Z" class="st11"/>
				</g>
				<g id="shape104-175" v:mID="104" v:groupContext="shape" transform="translate(37.7804,-23.341)">
					<title>Sheet.104</title>
					<path d="M1.88 227.22 L0 229.12 L13.54 229.12 L11.18 231.37 L22.13 228.29 L16.36 226.04 L15.19 227.22 L1.88 227.22
								 L1.88 227.22 L1.88 227.22 Z" class="st11"/>
				</g>
				<g id="shape105-177" v:mID="105" v:groupContext="shape" transform="translate(8.1128,-14.9316)">
					<title>Sheet.105</title>
					<path d="M20.25 230.18 L22.13 228.29 L8.71 228.29 L10.95 226.04 L0 229.12 L5.77 231.37 L7.06 230.18 L20.25 230.18
								 L20.25 230.18 L20.25 230.18 Z" class="st11"/>
				</g>
				<g id="shape106-179" v:mID="106" v:groupContext="shape" transform="translate(14.5879,-21.446)">
					<title>Sheet.106</title>
					<path d="M20.25 230.18 L22.13 228.29 L8.71 228.29 L10.95 226.04 L0 229.12 L5.77 231.37 L7.06 230.18 L20.25 230.18
								 L20.25 230.18 L20.25 230.18 Z" class="st11"/>
				</g>
				<g id="shape107-181" v:mID="107" v:groupContext="shape">
					<title>Sheet.107</title>
					<path d="M24.36 227.1 L24.36 227.1 L24.36 227.1 Z" class="st12"/>
				</g>
				<g id="shape108-183" v:mID="108" v:groupContext="shape">
					<title>Sheet.108</title>
				</g>
				<g id="shape109-184" v:mID="109" v:groupContext="shape">
					<title>Sheet.109</title>
					<path d="M24.36 226.74 L24.36 226.74 L24.36 226.74 Z" class="st13"/>
				</g>
				<g id="shape110-186" v:mID="110" v:groupContext="shape">
					<title>Sheet.110</title>
				</g>
				<g id="shape111-187" v:mID="111" v:groupContext="shape">
					<title>Sheet.111</title>
					<path d="M25.07 223.54 L25.07 223.54 L25.07 223.54 Z" class="st13"/>
				</g>
				<g id="shape112-189" v:mID="112" v:groupContext="shape">
					<title>Sheet.112</title>
				</g>
			</g>
			<g id="group120-190" transform="translate(384.719,-176.622)" v:mID="120" v:groupContext="group">
				<title>Sheet.120</title>
				<g id="shape118-191" v:mID="118" v:groupContext="shape" transform="translate(0,-20.8302)">
					<title>Sheet.118</title>
					<path d="M0 231.37 L29.06 231.37" class="st1"/>
				</g>
				<g id="shape119-194" v:mID="119" v:groupContext="shape" transform="translate(260.423,188.848) rotate(90)">
					<title>Sheet.119</title>
					<path d="M0 231.37 L42.52 231.37" class="st1"/>
				</g>
			</g>
			<g id="group121-197" transform="translate(384.719,-93.5664)" v:mID="121" v:groupContext="group">
				<title>Sheet.121</title>
				<g id="shape122-198" v:mID="122" v:groupContext="shape" transform="translate(0,-20.8302)">
					<title>Sheet.122</title>
					<path d="M0 231.37 L29.06 231.37" class="st1"/>
				</g>
				<g id="shape123-201" v:mID="123" v:groupContext="shape" transform="translate(260.423,188.848) rotate(90)">
					<title>Sheet.123</title>
					<path d="M0 231.37 L42.52 231.37" class="st1"/>
				</g>
			</g>
			<g id="group124-204" transform="translate(384.719,-11.2263)" v:mID="124" v:groupContext="group">
				<title>Sheet.124</title>
				<g id="shape125-205" v:mID="125" v:groupContext="shape" transform="translate(0,-20.8302)">
					<title>Sheet.125</title>
					<path d="M0 231.37 L29.06 231.37" class="st1"/>
				</g>
				<g id="shape126-208" v:mID="126" v:groupContext="shape" transform="translate(260.423,188.848) rotate(90)">
					<title>Sheet.126</title>
					<path d="M0 231.37 L42.52 231.37" class="st1"/>
				</g>
			</g>
			<g id="group127-211" transform="translate(132.12,328.056) rotate(180)" v:mID="127" v:groupContext="group">
				<title>Sheet.127</title>
				<g id="shape128-212" v:mID="128" v:groupContext="shape" transform="translate(0,-20.8302)">
					<title>Sheet.128</title>
					<path d="M0 231.37 L29.06 231.37" class="st1"/>
				</g>
				<g id="shape129-215" v:mID="129" v:groupContext="shape" transform="translate(260.423,188.848) rotate(90)">
					<title>Sheet.129</title>
					<path d="M0 231.37 L42.52 231.37" class="st1"/>
				</g>
			</g>
			<g id="shape130-218" v:mID="130" v:groupContext="shape" transform="translate(3.19744E-14,-80.5227)">
				<title>Rectangle</title>
				<desc>Office-1 50 users</desc>
				<v:userDefs>
					<v:ud v:nameU="visVersion" v:val="VT0(15):26"/>
				</v:userDefs>
				<v:textBlock v:margins="rect(4,4,4,4)" v:tabSpace="42.5197"/>
				<v:textRect cx="49.6063" cy="198.881" width="99.22" height="64.9723"/>
				<rect x="0" y="166.395" width="99.2126" height="64.9723" rx="5.66929" ry="5.66929" class="st14"/>
				<text x="21.81" y="194.68" class="st15" v:langID="1033"><v:paragraph v:horizAlign="1"/><v:tabList/>Office-1<v:newlineChar/><tspan
							x="15.84" dy="1.2em" class="st16">50 users</tspan></text>			</g>
			<g id="shape131-222" v:mID="131" v:groupContext="shape" transform="translate(420.274,-165.395)">
				<title>Rectangle.131</title>
				<desc>Office-2 50 users</desc>
				<v:userDefs>
					<v:ud v:nameU="visVersion" v:val="VT0(15):26"/>
				</v:userDefs>
				<v:textBlock v:margins="rect(4,4,4,4)" v:tabSpace="42.5197"/>
				<v:textRect cx="49.6063" cy="198.881" width="99.22" height="64.9723"/>
				<rect x="0" y="166.395" width="99.2126" height="64.9723" rx="5.66929" ry="5.66929" class="st14"/>
				<text x="21.81" y="194.68" class="st15" v:langID="1033"><v:paragraph v:horizAlign="1"/><v:tabList/>Office-2<v:newlineChar/><v:paragraph
							v:horizAlign="1"/><tspan x="15.84" dy="1.2em" class="st16">50 users</tspan></text>			</g>
			<g id="shape132-226" v:mID="132" v:groupContext="shape" transform="translate(420.274,-82.3401)">
				<title>Rectangle.132</title>
				<desc>Office-3 50 users</desc>
				<v:userDefs>
					<v:ud v:nameU="visVersion" v:val="VT0(15):26"/>
				</v:userDefs>
				<v:textBlock v:margins="rect(4,4,4,4)" v:tabSpace="42.5197"/>
				<v:textRect cx="49.6063" cy="198.881" width="99.22" height="64.9723"/>
				<rect x="0" y="166.395" width="99.2126" height="64.9723" rx="5.66929" ry="5.66929" class="st14"/>
				<text x="21.81" y="194.68" class="st15" v:langID="1033"><v:paragraph v:horizAlign="1"/><v:tabList/>Office-3<v:newlineChar/><v:paragraph
							v:horizAlign="1"/><tspan x="15.84" dy="1.2em" class="st16">50 users</tspan></text>			</g>
			<g id="shape133-230" v:mID="133" v:groupContext="shape" transform="translate(420.274,0)">
				<title>Rectangle.133</title>
				<desc>Office-4 50 users</desc>
				<v:userDefs>
					<v:ud v:nameU="visVersion" v:val="VT0(15):26"/>
				</v:userDefs>
				<v:textBlock v:margins="rect(4,4,4,4)" v:tabSpace="42.5197"/>
				<v:textRect cx="49.6063" cy="198.881" width="99.22" height="64.9723"/>
				<rect x="0" y="166.395" width="99.2126" height="64.9723" rx="5.66929" ry="5.66929" class="st14"/>
				<text x="21.81" y="194.68" class="st15" v:langID="1033"><v:paragraph v:horizAlign="1"/><v:tabList/>Office-4<v:newlineChar/><v:paragraph
							v:horizAlign="1"/><tspan x="15.84" dy="1.2em" class="st16">50 users</tspan></text>			</g>
			<g id="shape134-234" v:mID="134" v:groupContext="shape" transform="translate(135.972,-105.055)">
				<title>Sheet.134</title>
				<desc>SW1</desc>
				<v:textBlock v:margins="rect(4,4,4,4)" v:tabSpace="42.5197"/>
				<v:textRect cx="25.476" cy="224.261" width="50.96" height="14.2128"/>
				<rect x="0" y="217.155" width="50.9521" height="14.2128" class="st17"/>
				<text x="14" y="226.96" class="st18" v:langID="1033"><v:paragraph v:horizAlign="1"/><v:tabList/>SW1</text>			</g>
			<g id="shape135-237" v:mID="135" v:groupContext="shape" transform="translate(324.622,-186.952)">
				<title>Sheet.135</title>
				<desc>SW2</desc>
				<v:textBlock v:margins="rect(4,4,4,4)" v:tabSpace="42.5197"/>
				<v:textRect cx="25.476" cy="224.261" width="50.96" height="14.2128"/>
				<rect x="0" y="217.155" width="50.9521" height="14.2128" class="st17"/>
				<text x="14" y="226.96" class="st18" v:langID="1033"><v:paragraph v:horizAlign="1"/><v:tabList/>SW2</text>			</g>
			<g id="shape136-240" v:mID="136" v:groupContext="shape" transform="translate(324.614,-104.801)">
				<title>Sheet.136</title>
				<desc>SW3</desc>
				<v:textBlock v:margins="rect(4,4,4,4)" v:tabSpace="42.5197"/>
				<v:textRect cx="25.476" cy="224.261" width="50.96" height="14.2128"/>
				<rect x="0" y="217.155" width="50.9521" height="14.2128" class="st17"/>
				<text x="14" y="226.96" class="st18" v:langID="1033"><v:paragraph v:horizAlign="1"/><v:tabList/>SW3</text>			</g>
			<g id="shape137-243" v:mID="137" v:groupContext="shape" transform="translate(324.811,-22.2716)">
				<title>Sheet.137</title>
				<desc>SW4</desc>
				<v:textBlock v:margins="rect(4,4,4,4)" v:tabSpace="42.5197"/>
				<v:textRect cx="25.476" cy="224.261" width="50.96" height="14.2128"/>
				<rect x="0" y="217.155" width="50.9521" height="14.2128" class="st17"/>
				<text x="14" y="226.96" class="st18" v:langID="1033"><v:paragraph v:horizAlign="1"/><v:tabList/>SW4</text>			</g>
			<g id="shape138-246" v:mID="138" v:groupContext="shape" transform="translate(238.364,-96.883)">
				<title>Sheet.138</title>
				<desc>Router</desc>
				<v:textBlock v:margins="rect(4,4,4,4)" v:tabSpace="42.5197"/>
				<v:textRect cx="25.476" cy="224.261" width="50.96" height="14.2128"/>
				<rect x="0" y="217.155" width="50.9521" height="14.2128" class="st17"/>
				<text x="8.39" y="226.96" class="st18" v:langID="1033"><v:paragraph v:horizAlign="1"/><v:tabList/>Router</text>			</g>
			<g id="shape158-249" v:mID="158" v:groupContext="shape" transform="translate(20.2151,-167.491)">
				<title>Sheet.158</title>
				<desc>The company needs to address four offices with 50 users each</desc>
				<v:textBlock v:margins="rect(4,4,4,4)" v:tabSpace="42.5197"/>
				<v:textRect cx="97.1316" cy="208.064" width="194.27" height="46.6079"/>
				<rect x="0" y="184.76" width="194.263" height="46.6079" class="st17"/>
				<text x="4" y="195.46" class="st19" v:langID="1033"><v:paragraph/><v:tabList/>The company needs to <tspan x="4"
							dy="1.2em" class="st20">address four offices </tspan><tspan x="4" dy="1.2em" class="st20">with 50 users each</tspan></text>			</g>
			<g id="shape160-254" v:mID="160" v:groupContext="shape" transform="translate(0.0948855,-191.649)">
				<title>Circle.39</title>
				<desc>2</desc>
				<v:userDefs>
					<v:ud v:nameU="visVersion" v:val="VT0(15):26"/>
				</v:userDefs>
				<v:textBlock v:margins="rect(4,4,4,4)" v:tabSpace="42.5197"/>
				<v:textRect cx="9.58891" cy="221.779" width="16.79" height="14.3834"/>
				<path d="M0 221.78 A9.58891 9.58891 0 1 1 19.18 221.78 A9.58891 9.58891 0 0 1 -0 221.78 Z" class="st21"/>
				<text x="5.2" y="225.98" class="st22" v:langID="1033"><v:paragraph v:horizAlign="1"/><v:tabList/>2</text>			</g>
		</g>
	</g>
</svg>
