<?xml version="1.0" encoding="UTF-8" standalone="no"?>
<!DOCTYPE svg PUBLIC "-//W3C//DTD SVG 1.1//EN" "http://www.w3.org/Graphics/SVG/1.1/DTD/svg11.dtd">
<!-- Generated by Microsoft Visio, SVG Export the-subnetting-process.svg Page-1 -->
<svg xmlns="http://www.w3.org/2000/svg" xmlns:xlink="http://www.w3.org/1999/xlink" xmlns:ev="http://www.w3.org/2001/xml-events"
		xmlns:v="http://schemas.microsoft.com/visio/2003/SVGExtensions/" width="6.44967in" height="4.47676in"
		viewBox="0 0 464.377 322.327" xml:space="preserve" color-interpolation-filters="sRGB" class="st22">
	<v:documentProperties v:langID="1033" v:viewMarkup="false"/>

	<style type="text/css">
	<![CDATA[
		.st1 {stroke:#000000;stroke-linecap:round;stroke-linejoin:round;stroke-width:0.75}
		.st2 {stroke:#000000;stroke-linecap:butt;stroke-width:0.75}
		.st3 {fill:none;stroke:none;stroke-linecap:round;stroke-linejoin:round;stroke-width:0.75}
		.st4 {fill:#000000;font-family:Verdana;font-size:1.00001em}
		.st5 {fill:#126d99;stroke:#000000;stroke-linecap:round;stroke-linejoin:round;stroke-width:1}
		.st6 {fill:#ffffff;font-family:Verdana;font-size:1.00001em;font-weight:bold}
		.st7 {fill:#ffd965;stroke:#000000;stroke-linecap:round;stroke-linejoin:round;stroke-width:1}
		.st8 {fill:#000000;font-family:Verdana;font-size:1.00001em;font-weight:bold}
		.st9 {fill:#92cddc;stroke:#000000;stroke-linecap:round;stroke-linejoin:round;stroke-width:1}
		.st10 {marker-end:url(#mrkr4-60);stroke:#126d99;stroke-linecap:round;stroke-linejoin:round;stroke-width:2}
		.st11 {fill:#126d99;fill-opacity:1;stroke:#126d99;stroke-opacity:1;stroke-width:0.44247787610619}
		.st12 {fill:#ffffff;stroke:none;stroke-linecap:round;stroke-linejoin:round;stroke-width:0.75}
		.st13 {fill:#000000;font-family:Verdana;font-size:1.16666em;font-weight:bold}
		.st14 {font-size:0.857157em;font-weight:normal}
		.st15 {fill:#126d99;stroke:#126d99;stroke-linecap:round;stroke-linejoin:round;stroke-width:0.25}
		.st16 {stroke:#000000;stroke-linecap:round;stroke-linejoin:round;stroke-width:1}
		.st17 {fill:#000000;font-family:Verdana;font-size:0.833336em}
		.st18 {font-size:1em}
		.st19 {fill:#000000;font-family:Verdana;font-size:0.833336em;font-weight:bold}
		.st20 {marker-end:url(#mrkr2-133);stroke:#000000;stroke-linecap:round;stroke-linejoin:round;stroke-width:1}
		.st21 {fill:#000000;fill-opacity:1;stroke:#000000;stroke-opacity:1;stroke-width:0.28409090909091}
		.st22 {fill:none;fill-rule:evenodd;font-size:12px;overflow:visible;stroke-linecap:square;stroke-miterlimit:3}
	]]>
	</style>

	<defs id="Markers">
		<g id="lend4">
			<path d="M 2 1 L 0 0 L 2 -1 L 2 1 " style="stroke:none"/>
		</g>
		<marker id="mrkr4-60" class="st11" v:arrowType="4" v:arrowSize="2" v:setback="4.52" refX="-4.52" orient="auto"
				markerUnits="strokeWidth" overflow="visible">
			<use xlink:href="#lend4" transform="scale(-2.26,-2.26) "/>
		</marker>
		<g id="lend2">
			<path d="M 1 1 L 0 0 L 1 -1 L 1 1 " style="stroke:none"/>
		</g>
		<marker id="mrkr2-133" class="st21" v:arrowType="2" v:arrowSize="2" v:setback="3.52" refX="-3.52" orient="auto"
				markerUnits="strokeWidth" overflow="visible">
			<use xlink:href="#lend2" transform="scale(-3.52,-3.52) "/>
		</marker>
	</defs>
	<g v:mID="0" v:index="1" v:groupContext="foregroundPage">
		<title>Page-1</title>
		<v:pageProperties v:drawingScale="0.0393701" v:pageScale="0.0393701" v:drawingUnits="24" v:shadowOffsetX="9"
				v:shadowOffsetY="-9"/>
		<v:layer v:name="Common Icons" v:index="0"/>
		<v:layer v:name="Connector" v:index="1"/>
		<g id="group103-1" transform="translate(0.375,-0.375)" v:mID="103" v:groupContext="group">
			<title>Sheet.103</title>
			<g id="group18-2" transform="translate(117.453,-70.347)" v:mID="18" v:groupContext="group">
				<title>Sheet.18</title>
				<g id="group19-3" v:mID="19" v:groupContext="group">
					<title>Sheet.19</title>
					<g id="shape20-4" v:mID="20" v:groupContext="shape" transform="translate(0,-3.28223)">
						<title>Sheet.20</title>
						<path d="M0 322.33 L222.3 322.33" class="st1"/>
					</g>
					<g id="shape21-7" v:mID="21" v:groupContext="shape" transform="translate(544.623,315.359) rotate(90)">
						<title>Sheet.21</title>
						<path d="M0 322.33 L6.97 322.33" class="st2"/>
					</g>
					<g id="shape22-10" v:mID="22" v:groupContext="shape" transform="translate(322.327,315.076) rotate(90)">
						<title>Sheet.22</title>
						<path d="M0 322.33 L6.97 322.33" class="st2"/>
					</g>
				</g>
				<g id="shape23-13" v:mID="23" v:groupContext="shape" transform="translate(0,-3.51307)">
					<title>Sheet.23</title>
					<desc>Network</desc>
					<v:textBlock v:margins="rect(4,4,4,4)" v:tabSpace="42.5197"/>
					<v:textRect cx="111.148" cy="314.392" width="222.3" height="15.87"/>
					<rect x="0" y="306.457" width="222.296" height="15.87" class="st3"/>
					<text x="86.06" y="317.99" class="st4" v:langID="1033"><v:paragraph v:horizAlign="1"/><v:tabList/>Network</text>				</g>
			</g>
			<g id="group24-16" transform="translate(116.977,-46.616)" v:mID="24" v:groupContext="group">
				<title>Sheet.24</title>
				<g id="shape25-17" v:mID="25" v:groupContext="shape">
					<title>Rectangle.22</title>
					<desc>Network</desc>
					<v:userDefs>
						<v:ud v:nameU="visVersion" v:val="VT0(15):26"/>
					</v:userDefs>
					<v:textBlock v:margins="rect(4,4,4,4)" v:tabSpace="42.5197"/>
					<v:textRect cx="111.148" cy="311.697" width="222.3" height="21.2598"/>
					<rect x="0" y="301.067" width="222.296" height="21.2598" class="st5"/>
					<text x="82.35" y="315.3" class="st6" v:langID="1033"><v:paragraph v:horizAlign="1"/><v:tabList/>Network</text>				</g>
				<g id="group26-20" transform="translate(222.535,0)" v:mID="26" v:groupContext="group">
					<title>Sheet.26</title>
					<g id="shape27-21" v:mID="27" v:groupContext="shape" transform="translate(56.3945,0)">
						<title>Rectangle.4</title>
						<desc>Host</desc>
						<v:userDefs>
							<v:ud v:nameU="visVersion" v:val="VT0(15):26"/>
						</v:userDefs>
						<v:textBlock v:margins="rect(4,4,4,4)" v:tabSpace="42.5197"/>
						<v:textRect cx="20.6929" cy="311.697" width="41.39" height="21.2598"/>
						<rect x="0" y="301.067" width="41.3858" height="21.2598" class="st7"/>
						<text x="5.26" y="315.3" class="st8" v:langID="1033"><v:paragraph v:horizAlign="1"/><v:tabList/>Host</text>					</g>
					<g id="shape28-24" v:mID="28" v:groupContext="shape">
						<title>Rectangle.13</title>
						<desc>Subnet</desc>
						<v:userDefs>
							<v:ud v:nameU="visVersion" v:val="VT0(15):26"/>
						</v:userDefs>
						<v:textBlock v:margins="rect(4,4,4,4)" v:tabSpace="42.5197"/>
						<v:textRect cx="28.1973" cy="311.697" width="56.4" height="21.2598"/>
						<rect x="0" y="301.067" width="56.3945" height="21.2598" class="st9"/>
						<text x="4.47" y="315.3" class="st8" v:langID="1033"><v:paragraph v:horizAlign="1"/><v:tabList/>Subnet</text>					</g>
				</g>
			</g>
			<g id="group44-27" transform="translate(395.913,-70.347)" v:mID="44" v:groupContext="group">
				<title>Sheet.44</title>
				<g id="group45-28" v:mID="45" v:groupContext="group">
					<title>Sheet.45</title>
					<g id="shape46-29" v:mID="46" v:groupContext="shape" transform="translate(7.99361E-15,-3.28223)">
						<title>Sheet.46</title>
						<path d="M0 322.33 L41.85 322.33" class="st1"/>
					</g>
					<g id="shape47-32" v:mID="47" v:groupContext="shape" transform="translate(364.182,315.359) rotate(90)">
						<title>Sheet.47</title>
						<path d="M0 322.33 L6.97 322.33" class="st2"/>
					</g>
					<g id="shape48-35" v:mID="48" v:groupContext="shape" transform="translate(322.327,315.076) rotate(90)">
						<title>Sheet.48</title>
						<path d="M0 322.33 L6.97 322.33" class="st2"/>
					</g>
				</g>
				<g id="shape49-38" v:mID="49" v:groupContext="shape" transform="translate(0,-3.51307)">
					<title>Sheet.49</title>
					<desc>Host</desc>
					<v:textBlock v:margins="rect(4,4,4,4)" v:tabSpace="42.5197"/>
					<v:textRect cx="20.9275" cy="314.392" width="41.86" height="15.87"/>
					<rect x="0" y="306.457" width="41.855" height="15.87" class="st3"/>
					<text x="7.29" y="317.99" class="st4" v:langID="1033"><v:paragraph v:horizAlign="1"/><v:tabList/>Host</text>				</g>
			</g>
			<g id="group50-41" transform="translate(340.105,-70.347)" v:mID="50" v:groupContext="group">
				<title>Sheet.50</title>
				<g id="group51-42" v:mID="51" v:groupContext="group">
					<title>Sheet.51</title>
					<g id="shape52-43" v:mID="52" v:groupContext="shape" transform="translate(7.99361E-15,-3.28223)">
						<title>Sheet.52</title>
						<path d="M0 322.33 L55.81 322.33" class="st1"/>
					</g>
					<g id="shape53-46" v:mID="53" v:groupContext="shape" transform="translate(378.135,315.359) rotate(90)">
						<title>Sheet.53</title>
						<path d="M0 322.33 L6.97 322.33" class="st2"/>
					</g>
					<g id="shape54-49" v:mID="54" v:groupContext="shape" transform="translate(322.327,315.076) rotate(90)">
						<title>Sheet.54</title>
						<path d="M0 322.33 L6.97 322.33" class="st2"/>
					</g>
				</g>
				<g id="shape55-52" v:mID="55" v:groupContext="shape" transform="translate(1.13386,-3.51307)">
					<title>Sheet.55</title>
					<desc>Subnet</desc>
					<v:textBlock v:margins="rect(4,4,4,4)" v:tabSpace="42.5197"/>
					<v:textRect cx="27.9041" cy="314.392" width="55.81" height="15.87"/>
					<rect x="0" y="306.457" width="55.8082" height="15.87" class="st3"/>
					<text x="6.53" y="317.99" class="st4" v:langID="1033"><v:paragraph v:horizAlign="1"/><v:tabList/>Subnet</text>				</g>
			</g>
			<g id="shape58-55" v:mID="58" v:groupContext="shape" transform="translate(709.953,143.392) rotate(90)">
				<title>Sheet.58</title>
				<path d="M0 322.33 L76.82 322.33" class="st10"/>
			</g>
			<g id="shape59-61" v:mID="59" v:groupContext="shape" transform="translate(311.627,-112.914)">
				<title>Sheet.59</title>
				<desc>Subnetting Converting host bits to network bits</desc>
				<v:textBlock v:margins="rect(4,4,4,4)" v:tabSpace="42.5197"/>
				<v:textRect cx="76" cy="296.403" width="152.01" height="51.8466"/>
				<rect x="0" y="270.48" width="152" height="51.8466" class="st12"/>
				<text x="32.86" y="286.9" class="st13" v:langID="1033"><v:paragraph v:spLine="-1" v:horizAlign="1"/><v:tabList/>Subnetting<v:newlineChar/><tspan
							x="7" dy="1.042em" class="st14">Converting host bits to </tspan><tspan x="38.62" dy="1.125em"
							class="st14">network bits</tspan></text>			</g>
			<g id="group66-66" transform="translate(332.952,-78.0047)" v:mID="66" v:groupContext="group" v:layerMember="0">
				<v:userDefs>
					<v:ud v:nameU="visVersion" v:prompt="" v:val="VT0(17):26"/>
					<v:ud v:nameU="visAltText" v:prompt="" v:val="VT4(Lock)"/>
					<v:ud v:nameU="visAltDescription" v:prompt="" v:val="VT4(Lock Icon.)"/>
					<v:ud v:nameU="Font" v:prompt="" v:val="VT0(243):26"/>
				</v:userDefs>
				<title>Lock.66</title>
				<g id="shape67-67" v:mID="67" v:groupContext="shape" v:layerMember="0">
					<title>Sheet.67</title>
					<path d="M6.26 319.06 L6.26 320.19 L5.42 320.19 L5.42 319.06 C4.94 318.89 4.59 318.42 4.59 317.85 C4.59 317.14
								 5.15 316.56 5.84 316.56 C6.53 316.56 7.09 317.14 7.09 317.85 C7.09 318.4 6.74 318.87 6.26 319.06
								 ZM2.71 311.23 C2.71 309.46 4.11 308.03 5.84 308.03 C7.57 308.03 8.97 309.46 8.97 311.23 L8.97 313.6
								 L5.84 313.36 L2.71 313.6 L2.71 311.23 ZM10.22 313.68 L10.22 311.23 C10.22 308.75 8.26 306.75 5.84
								 306.75 C3.42 306.75 1.46 308.75 1.46 311.23 L1.46 313.68 L0 313.79 L0 321.9 L5.84 322.33 L11.68
								 321.9 L11.68 313.79 L10.22 313.68 Z" class="st15"/>
				</g>
			</g>
			<g id="shape70-69" v:mID="70" v:groupContext="shape" transform="translate(116.977,-191.79)">
				<title>Rectangle.70</title>
				<desc>Network</desc>
				<v:userDefs>
					<v:ud v:nameU="visVersion" v:val="VT0(15):26"/>
				</v:userDefs>
				<v:textBlock v:margins="rect(4,4,4,4)" v:tabSpace="42.5197"/>
				<v:textRect cx="111.148" cy="311.697" width="222.3" height="21.2598"/>
				<rect x="0" y="301.067" width="222.296" height="21.2598" class="st5"/>
				<text x="82.35" y="315.3" class="st6" v:langID="1033"><v:paragraph v:horizAlign="1"/><v:tabList/>Network</text>			</g>
			<g id="shape71-72" v:mID="71" v:groupContext="shape" transform="translate(116.977,-219.626)">
				<title>Rectangle.71</title>
				<desc>00100101.00000001.00000001</desc>
				<v:userDefs>
					<v:ud v:nameU="visVersion" v:val="VT0(15):26"/>
				</v:userDefs>
				<v:textBlock v:margins="rect(4,4,4,4)" v:tabSpace="42.5197"/>
				<v:textRect cx="111.148" cy="311.697" width="222.3" height="21.2598"/>
				<rect x="0" y="301.067" width="222.296" height="21.2598" class="st5"/>
				<text x="4.43" y="315.3" class="st6" v:langID="1033"><v:paragraph v:horizAlign="1"/><v:tabList/>00100101.00000001.00000001</text>			</g>
			<g id="shape72-75" v:mID="72" v:groupContext="shape" transform="translate(339.629,-219.626)">
				<title>Rectangle.72</title>
				<desc>00000000</desc>
				<v:userDefs>
					<v:ud v:nameU="visVersion" v:val="VT0(15):26"/>
				</v:userDefs>
				<v:textBlock v:margins="rect(4,4,4,4)" v:tabSpace="42.5197"/>
				<v:textRect cx="48.8902" cy="311.697" width="97.79" height="21.2598"/>
				<rect x="0" y="301.067" width="97.7804" height="21.2598" class="st7"/>
				<text x="14.76" y="315.3" class="st8" v:langID="1033"><v:paragraph v:horizAlign="1"/><v:tabList/>00000000</text>			</g>
			<g id="shape73-78" v:mID="73" v:groupContext="shape" transform="translate(339.629,-191.79)">
				<title>Rectangle.73</title>
				<desc>Host</desc>
				<v:userDefs>
					<v:ud v:nameU="visVersion" v:val="VT0(15):26"/>
				</v:userDefs>
				<v:textBlock v:margins="rect(4,4,4,4)" v:tabSpace="42.5197"/>
				<v:textRect cx="48.8316" cy="311.697" width="97.67" height="21.2598"/>
				<rect x="0" y="301.067" width="97.6632" height="21.2598" class="st7"/>
				<text x="33.4" y="315.3" class="st8" v:langID="1033"><v:paragraph v:horizAlign="1"/><v:tabList/>Host</text>			</g>
			<g id="group74-81" transform="translate(339.629,-244.69)" v:mID="74" v:groupContext="group">
				<title>Sheet.74</title>
				<g id="shape75-82" v:mID="75" v:groupContext="shape" transform="translate(1.59872E-14,-3.28223)">
					<title>Sheet.75</title>
					<path d="M0 322.33 L97.78 322.33" class="st1"/>
				</g>
				<g id="shape76-85" v:mID="76" v:groupContext="shape" transform="translate(420.107,315.359) rotate(90)">
					<title>Sheet.76</title>
					<path d="M0 322.33 L6.97 322.33" class="st2"/>
				</g>
				<g id="shape77-88" v:mID="77" v:groupContext="shape" transform="translate(322.327,315.076) rotate(90)">
					<title>Sheet.77</title>
					<path d="M0 322.33 L6.97 322.33" class="st2"/>
				</g>
			</g>
			<g id="shape78-91" v:mID="78" v:groupContext="shape" transform="translate(339.746,-248.203)">
				<title>Sheet.78</title>
				<desc>Host 8 bits</desc>
				<v:textBlock v:margins="rect(4,4,4,4)" v:tabSpace="42.5197"/>
				<v:textRect cx="48.8316" cy="314.392" width="97.67" height="15.87"/>
				<rect x="0" y="306.457" width="97.6632" height="15.87" class="st3"/>
				<text x="16.28" y="317.99" class="st4" v:langID="1033"><v:paragraph v:horizAlign="1"/><v:tabList/>Host 8 bits</text>			</g>
			<g id="group79-94" transform="translate(116.977,-244.69)" v:mID="79" v:groupContext="group">
				<title>Sheet.79</title>
				<g id="shape80-95" v:mID="80" v:groupContext="shape" transform="translate(6.39488E-14,-3.28223)">
					<title>Sheet.80</title>
					<path d="M0 322.33 L222.3 322.33" class="st1"/>
				</g>
				<g id="shape81-98" v:mID="81" v:groupContext="shape" transform="translate(544.623,315.359) rotate(90)">
					<title>Sheet.81</title>
					<path d="M0 322.33 L6.97 322.33" class="st2"/>
				</g>
				<g id="shape82-101" v:mID="82" v:groupContext="shape" transform="translate(322.327,315.076) rotate(90)">
					<title>Sheet.82</title>
					<path d="M0 322.33 L6.97 322.33" class="st2"/>
				</g>
			</g>
			<g id="shape83-104" v:mID="83" v:groupContext="shape" transform="translate(116.977,-248.203)">
				<title>Sheet.83</title>
				<desc>Network 24 bits</desc>
				<v:textBlock v:margins="rect(4,4,4,4)" v:tabSpace="42.5197"/>
				<v:textRect cx="111.148" cy="314.392" width="222.3" height="15.87"/>
				<rect x="0" y="306.457" width="222.296" height="15.87" class="st3"/>
				<text x="63.34" y="317.99" class="st4" v:langID="1033"><v:paragraph v:horizAlign="1"/><v:tabList/>Network 24 bits</text>			</g>
			<g id="group84-107" transform="translate(333.358,-253.902)" v:mID="84" v:groupContext="group" v:layerMember="0">
				<v:userDefs>
					<v:ud v:nameU="visVersion" v:prompt="" v:val="VT0(17):26"/>
					<v:ud v:nameU="visAltText" v:prompt="" v:val="VT4(Lock)"/>
					<v:ud v:nameU="visAltDescription" v:prompt="" v:val="VT4(Lock Icon.)"/>
					<v:ud v:nameU="Font" v:prompt="" v:val="VT0(243):26"/>
				</v:userDefs>
				<title>Lock.84</title>
				<g id="shape85-108" v:mID="85" v:groupContext="shape" v:layerMember="0">
					<title>Sheet.85</title>
					<path d="M6.26 319.06 L6.26 320.19 L5.42 320.19 L5.42 319.06 C4.94 318.89 4.59 318.42 4.59 317.85 C4.59 317.14
								 5.15 316.56 5.84 316.56 C6.53 316.56 7.09 317.14 7.09 317.85 C7.09 318.4 6.74 318.87 6.26 319.06
								 ZM2.71 311.23 C2.71 309.46 4.11 308.03 5.84 308.03 C7.57 308.03 8.97 309.46 8.97 311.23 L8.97 313.6
								 L5.84 313.36 L2.71 313.6 L2.71 311.23 ZM10.22 313.68 L10.22 311.23 C10.22 308.75 8.26 306.75 5.84
								 306.75 C3.42 306.75 1.46 308.75 1.46 311.23 L1.46 313.68 L0 313.79 L0 321.9 L5.84 322.33 L11.68
								 321.9 L11.68 313.79 L10.22 313.68 Z" class="st15"/>
				</g>
			</g>
			<g id="shape86-110" v:mID="86" v:groupContext="shape" transform="translate(0.873697,-219.626)">
				<title>Rectangle.108</title>
				<desc>37.1.1.0/24</desc>
				<v:userDefs>
					<v:ud v:nameU="visVersion" v:val="VT0(15):26"/>
				</v:userDefs>
				<v:textBlock v:margins="rect(4,4,4,4)" v:tabSpace="42.5197"/>
				<v:textRect cx="55.0943" cy="311.697" width="110.19" height="21.2598"/>
				<rect x="0" y="301.067" width="110.189" height="21.2598" class="st5"/>
				<text x="25.19" y="315.3" class="st6" v:langID="1033"><v:paragraph v:horizAlign="2"/><v:tabList/>37.1.1.0/24</text>			</g>
			<g id="shape88-113" v:mID="88" v:groupContext="shape" transform="translate(439.78,30.9733) rotate(90)">
				<title>Left Brace</title>
				<v:userDefs>
					<v:ud v:nameU="visVersion" v:prompt="" v:val="VT0(15):26"/>
				</v:userDefs>
				<path d="M19.38 322.33 A17.2947 24.7932 0 0 1 9.69 316.88 L9.69 211.18 L0 211.18 L9.69 211.18 L9.69 105.48 A17.2947
							 24.7932 0 0 1 19.38 100.03" class="st16"/>
			</g>
			<g id="shape89-116" v:mID="89" v:groupContext="shape" transform="translate(152.363,-291.353)">
				<title>Sheet.89</title>
				<desc>We cannot touch the original network portion</desc>
				<v:textBlock v:margins="rect(4,4,4,4)" v:tabSpace="42.5197"/>
				<v:textRect cx="76" cy="307.215" width="152.01" height="30.2233"/>
				<rect x="0" y="292.103" width="152" height="30.2233" class="st12"/>
				<text x="23.81" y="304.72" class="st17" v:langID="1033"><v:paragraph v:spLine="-1" v:horizAlign="1"/><v:tabList/>We cannot touch the <tspan
							x="15.76" dy="1em" class="st18">original network portion</tspan></text>			</g>
			<g id="shape90-120" v:mID="90" v:groupContext="shape" transform="translate(663.941,30.9733) rotate(90)">
				<title>Left Brace.90</title>
				<v:userDefs>
					<v:ud v:nameU="visVersion" v:prompt="" v:val="VT0(15):26"/>
				</v:userDefs>
				<path d="M19.38 322.33 A17.2947 10.8926 0 0 1 9.69 319.93 L9.69 273.5 L0 273.5 L9.69 273.5 L9.69 227.06 A17.2947
							 10.8926 0 0 1 19.38 224.66" class="st16"/>
			</g>
			<g id="shape91-123" v:mID="91" v:groupContext="shape" transform="translate(344.225,-291.353)">
				<title>Sheet.91</title>
				<desc>We work with the host bits to do subnetting</desc>
				<v:textBlock v:margins="rect(4,4,4,4)" v:tabSpace="42.5197"/>
				<v:textRect cx="48.8902" cy="307.215" width="97.79" height="30.2233"/>
				<rect x="0" y="292.103" width="97.7804" height="30.2233" class="st12"/>
				<text x="9.89" y="299.72" class="st19" v:langID="1033"><v:paragraph v:spLine="-1" v:horizAlign="1"/><v:tabList/>We work with <tspan
							x="6.2" dy="1em" class="st18">the host bits to </tspan><tspan x="10.02" dy="1em" class="st18">do subnetting</tspan></text>			</g>
			<g id="shape96-128" v:mID="96" v:groupContext="shape" v:layerMember="1" transform="translate(55.968,-219.626)">
				<title>Dynamic connector</title>
				<path d="M0 322.33 L0 333.86 A5.66929 5.66929 -180 0 0 5.67 339.53 L57.49 339.53" class="st20"/>
			</g>
			<g id="shape97-134" v:mID="97" v:groupContext="shape" transform="translate(3.19744E-14,-140.443)">
				<title>Sheet.97</title>
				<desc>/24 defines that the first 24 bits are the network portion</desc>
				<v:textBlock v:margins="rect(4,4,4,4)" v:tabSpace="42.5197"/>
				<v:textRect cx="55.968" cy="293.365" width="111.94" height="57.9233"/>
				<rect x="0" y="264.403" width="111.936" height="57.9233" class="st3"/>
				<text x="7.7" y="278.37" class="st4" v:langID="1033"><v:paragraph v:spLine="-1" v:horizAlign="1"/><v:tabList/>/24 defines that <tspan
							x="9.59" dy="1em" class="st18">the first 24 bits </tspan><tspan x="7.88" dy="1em" class="st18">are the network </tspan><tspan
							x="34.58" dy="1em" class="st18">portion</tspan></text>			</g>
			<g id="group98-140" transform="translate(116.977,-28.0266)" v:mID="98" v:groupContext="group">
				<title>Sheet.98</title>
				<g id="shape99-141" v:mID="99" v:groupContext="shape" transform="translate(6.39488E-14,-3.28223)">
					<title>Sheet.99</title>
					<path d="M0 322.33 L279.69 322.33" class="st1"/>
				</g>
				<g id="shape100-144" v:mID="100" v:groupContext="shape" transform="translate(602.016,315.359) rotate(90)">
					<title>Sheet.100</title>
					<path d="M0 322.33 L6.97 322.33" class="st2"/>
				</g>
				<g id="shape101-147" v:mID="101" v:groupContext="shape" transform="translate(322.327,315.076) rotate(90)">
					<title>Sheet.101</title>
					<path d="M0 322.33 L6.97 322.33" class="st2"/>
				</g>
			</g>
			<g id="shape102-150" v:mID="102" v:groupContext="shape" transform="translate(116.977,0)">
				<title>Sheet.102</title>
				<desc>The subnet has new network mask = (original network bits + su...</desc>
				<v:textBlock v:margins="rect(4,4,4,4)" v:tabSpace="42.5197"/>
				<v:textRect cx="139.844" cy="307.215" width="279.69" height="30.2233"/>
				<rect x="0" y="292.103" width="279.689" height="30.2233" class="st3"/>
				<text x="27.49" y="304.21" class="st4" v:langID="1033"><v:paragraph v:spLine="-1" v:horizAlign="1"/><v:tabList/>The subnet has new network mask = <tspan
							x="30.11" dy="1em" class="st18">(original network bits + subnet bits)</tspan></text>			</g>
		</g>
	</g>
</svg>
